<?xml version="1.0" encoding="utf-8"?>
<!-- Generator: Adobe Illustrator 26.1.0, SVG Export Plug-In . SVG Version: 6.00 Build 0)  -->
<svg version="1.1" id="Capa_1" xmlns="http://www.w3.org/2000/svg" xmlns:xlink="http://www.w3.org/1999/xlink" x="0px" y="0px"
	 viewBox="0 0 1353 370" style="enable-background:new 0 0 1353 370;" xml:space="preserve">
<style type="text/css">
	.st0{fill:#FFFFFF;}
	.st1{fill:#FFFF00;}
	.st2{fill:#00A99D;}
	.st3{fill:#FF00FF;}
	.st4{fill:#ED1C24;}
	.st5{fill:#0000FF;}
	.st6{fill:#A400B1;}
	.st7{fill:#F7931E;}
	.st8{fill:#6E0ED0;}
	.st9{fill:#D9F732;}
	.st10{fill:#1FC7FF;}
	.st11{fill:#FF432D;}
	.st12{fill:#1A1A1A;}
	.st13{fill:#783DFF;}
	.st14{fill:#4DB7FF;}
	.st15{fill:#4C84FF;}
</style>
<g>
	<g>
		<path class="st13" d="M25.4,70.3L28.7,23c0,0,2.5-16.9,19.3-18l242.4,0.2c0,0,2.5,1.9,0,3.7c-2.5,1.8-262.7,63.7-262.7,63.7
			S25.5,73.6,25.4,70.3z"/>
		<path class="st14" d="M125.6,154.8c0,0-2.3-6.8-9-5.6L22,172.9c0,0-4.5,1.1-4.5,6.8L5,343.3c0,0-1.1,17.7,23.7,17.7h143.1
			c0,0,4.5-1.1,3.4-5.6L125.6,154.8z"/>
		<path class="st15" d="M230.4,127.8l56.3,227.6c0,0,1.1,5.6,7.9,5.6h28.2c0,0,22,1.1,25.1-16.9l-19.4-242.2c0,0-1.1-3.4-4.5-2.3
			L233.7,121C233.7,121,229.2,123.3,230.4,127.8z"/>
	</g>
	<g>
		<g>
			<path class="st12" d="M457.8,150.3h-47.2v-23.6h123v23.6h-47.1v128.5h-28.6V150.3z"/>
			<path class="st12" d="M550.6,117.9h27.3v26.7h-27.3V117.9z M550.6,165.7h27.3v113.1h-27.3V165.7z"/>
			<path class="st12" d="M607.9,194.2c0-9.7,0-20-0.2-28.5h26.5c0.6,3.1,1,12.3,1.1,15.8c4.1-8,13.2-18.5,33.7-18.5
				c22.2,0,37.6,14.5,37.6,43.5v72.2h-27.3v-69.1c0-14.2-5.1-24.2-20-24.2c-16,0-23.9,10.4-23.9,31.3v62h-27.3V194.2z"/>
			<path class="st12" d="M752.2,165.7c13.9,44.1,24,77.3,26.2,88.1h0.2c2.9-11.9,10-37.4,25.1-88.1h27.3l-38.9,117
				c-11,32.7-19.9,42-45.7,42c-3,0-8.8-0.2-13.8-0.8v-22.4c2.4,0.3,5.8,0.5,8.5,0.5c12.4,0,18.1-4.8,23.2-19.4l-41.6-116.8H752.2z"
				/>
			<path class="st12" d="M866.1,245.3c2.7,10.1,10.6,15.9,23.5,15.9c13.3,0,18.2-5.2,18.2-13.2c0-8.4-5-11.9-23-16.3
				c-35.3-8.7-41.6-19.6-41.6-35.3c0-16.4,11.7-33.4,44.2-33.4c32.6,0,44.3,18.1,45.4,33.6h-26.1c-1.2-5.2-4.9-13.9-20.5-13.9
				c-12.2,0-16,5.6-16,11.5c0,6.6,3.9,9.8,23,14.3c36.6,8.6,42.4,21,42.4,37.6c0,19.1-14.7,35.3-47.1,35.3
				c-32.6,0-46.9-16-49.5-36.1H866.1z"/>
			<path class="st12" d="M985.2,117.9v62.3c5.2-8.2,14.8-17.1,33.4-17.1c20.1,0,38,11.6,38,43.3v72.4h-27.2v-68.2
				c0-16.2-6.2-25-20.4-25c-18.4,0-23.7,13.1-23.7,32.6v60.6h-27.3V117.9H985.2z"/>
			<path class="st12" d="M1188.8,222c0,33.7-19.9,59.4-55.3,59.4c-34.2,0-54.3-25-54.3-58.9c0-34.4,20.5-59.5,55.8-59.5
				C1167.6,163.1,1188.8,186.6,1188.8,222z M1107,222.2c0,22.8,10.4,37.4,27.2,37.4c17.1,0,26.7-14.3,26.7-37.3
				c0-24.3-9.7-37.6-27.1-37.6C1117.1,184.8,1107,197.7,1107,222.2z"/>
			<path class="st12" d="M1238.9,267.4v55h-27.2V193.1c0-9.2,0-18.4-0.2-27.4h26.5c0.4,3.3,0.9,10.2,0.9,15.3
				c5.3-9.3,15.8-18,34.2-18c25.7,0,45.1,21.5,45.1,56.3c0,40.1-21.9,62-49.3,62C1252.2,281.4,1243.5,274.9,1238.9,267.4z
				 M1290.4,220.4c0-21.8-9.2-35.1-25.6-35.1c-19.7,0-27,12.6-27,36.9c0,23.3,6.4,37.1,25.6,37.1
				C1281.3,259.4,1290.4,245.1,1290.4,220.4z"/>
		</g>
	</g>
</g>
</svg>
